<svg xmlns="http://www.w3.org/2000/svg" version="1.0" width="165" height="75">
  <rect width="154" height="62" x="5" y="5" fill="#00BFFF" />
  <path d="M 10,10 C 10,27 48,60 58,60 68,60 70,44 45.5,27 45,10 87,10 87,10" style="fill:none;stroke:#00008B;stroke-width:1pt" />
  <path d="m 129.5,9.2
  c -3.4,0.1 -5.1,0.9 -6.2,6.1 -1.3,5.8 3.9,17.0 3.9,17.0 0,0 -6.2,0.6 -9.5,0
  C 114.3,31.8 114.3,31.5 114.3,31.5 l 1.9,5.2 -2.2,3.2 c 0,0 5.9,-0.6
  6.8,-0.6 0.9,0 3.5,0.0 6.3,0.1 0,5.4 -1.7,22.1 -1.7,22.1 0,0 2.8,-2.4
  5.5,-2.4 2.7,0 5.5,2.4 5.5,2.4 0,0 -1.7,-16.7 -1.7,-22.1 2.7,-0.1 5.3,-0.1
  6.3,-0.1 0.9,0 6.8,0.6 6.8,0.6 l -2.2,-3.2 1.9,-5.2 c 0,0 -0.0,0.3 -3.2,0.9
  -3.2,0.6 -9.5,0 -9.5,0 0,0 5.2,-11.1 3.9,-17.0 -1.3,-5.8 -3.2,-6.1
  -7.8,-6.1 -0.5,0 -1.0,-0.0 -1.5,0 z m 1.5,2.8 c 1.4,0.0 2.4,0.3 3.8,1.3
  2.1,4.7 0.5,9.4 -1.9,13.5 -0.6,0.9 -1.2,1.8 -1.9,2.7 -0.6,-0.9 -1.3,-1.8
  -1.9,-2.7 -2.4,-4.0 -4.0,-8.7 -1.9,-13.5 0.6,-0.7 2.8,-1.3 3.8,-1.3
  z" fill="#1E90FF" stroke="#00008B" stroke-width="1" />
</svg>
